<svg xmlns="http://www.w3.org/2000/svg" width="68" height="54" fill="none" viewBox="0 0 68 54">
  <path fill="#E37FB9" d="M57.799 9.502h-4.352l-1.088-3.168c-.705-1.858-2.014-3.466-3.744-4.601A10.725 10.725 0 0042.703 0H25.295a10.715 10.715 0 00-5.95 1.797c-1.733 1.165-3.029 2.808-3.705 4.696L14.552 9.66H10.2c-2.705 0-5.3 1-7.213 2.783C1.075 14.225 0 16.64 0 19.16v25.337c0 2.52 1.075 4.937 2.987 6.72C4.9 52.998 7.495 54 10.2 54h47.599c2.705 0 5.3-1.001 7.212-2.783C66.924 49.435 68 47.02 68 44.5V19.16a8.93 8.93 0 00-.727-3.684 9.467 9.467 0 00-2.2-3.137c-.95-.899-2.082-1.613-3.33-2.1a10.853 10.853 0 00-3.943-.738zm3.4 34.838c0 .84-.358 1.646-.996 2.24a3.53 3.53 0 01-2.404.927h-47.6a3.53 3.53 0 01-2.403-.927 3.061 3.061 0 01-.996-2.24V19.003c0-.84.358-1.646.996-2.24a3.53 3.53 0 012.404-.927H17a3.586 3.586 0 002.089-.544 3.203 3.203 0 001.31-1.61l1.836-5.194a3.195 3.195 0 011.243-1.562 3.573 3.573 0 011.987-.592h17.408a3.573 3.573 0 011.988.592c.58.387 1.014.933 1.242 1.562l1.836 5.194a3.186 3.186 0 001.173 1.517 3.557 3.557 0 001.887.637h6.8a3.53 3.53 0 012.404.928c.637.593.996 1.399.996 2.239V44.34zm-27.2-28.504c-2.69 0-5.319.743-7.555 2.135-2.237 1.392-3.98 3.37-5.01 5.685a11.865 11.865 0 00-.773 7.32c.525 2.457 1.82 4.715 3.722 6.486 1.902 1.772 4.325 2.979 6.963 3.468a14.53 14.53 0 007.858-.721c2.485-.96 4.609-2.583 6.103-4.666 1.494-2.084 2.292-4.533 2.292-7.039 0-3.36-1.433-6.582-3.983-8.958-2.55-2.375-6.01-3.71-9.617-3.71zm0 19.003a7.16 7.16 0 01-3.778-1.068 6.455 6.455 0 01-2.504-2.843 5.933 5.933 0 01-.387-3.66 6.213 6.213 0 011.861-3.243 6.968 6.968 0 013.482-1.733 7.266 7.266 0 013.928.36 6.72 6.72 0 013.052 2.333 6.03 6.03 0 011.146 3.52c0 1.68-.716 3.29-1.992 4.479-1.275 1.187-3.004 1.855-4.808 1.855z"/>
</svg>
