<svg xmlns="http://www.w3.org/2000/svg" width="93" height="118" fill="none" viewBox="0 0 93 118">
  <path fill="#E37FB9" d="M50.745 65.381a7.593 7.593 0 00-3.704-2.167 7.396 7.396 0 00-4.247.215l-37.5 13.004a7.703 7.703 0 00-3.781 2.827 8.168 8.168 0 00-1.511 4.575 8.189 8.189 0 001.316 4.639 7.738 7.738 0 003.659 2.996l13.886 5.499c.317.125.605.317.846.563.242.246.432.54.559.866l5.3 14.433a7.86 7.86 0 002.804 3.762A7.416 7.416 0 0032.75 118h.186a7.456 7.456 0 004.415-1.563 7.916 7.916 0 002.714-3.935L52.6 73.546a8.228 8.228 0 00.196-4.357 8.028 8.028 0 00-2.051-3.808zm-3.048 6.433L35.03 110.797a2.423 2.423 0 01-.843 1.232c-.4.306-.885.472-1.383.473-.495.008-.98-.14-1.392-.425a2.514 2.514 0 01-.913-1.17l-5.3-14.433a8.04 8.04 0 00-1.74-2.798 7.692 7.692 0 00-2.686-1.82L6.857 86.356a2.4 2.4 0 01-1.153-.934 2.542 2.542 0 01-.41-1.458c0-.516.16-1.019.455-1.434a2.336 2.336 0 011.188-.875l37.579-13.003a2.33 2.33 0 011.362-.141c.458.09.88.317 1.217.651.336.335.572.763.679 1.233.106.47.08.963-.078 1.418z"/>
  <path stroke="#ACACAC" stroke-width="2" d="M46 33.5l42 59M47 29.484L80.019 5.497"/>
  <circle cx="89.5" cy="94.5" r="2.5" stroke="#ACACAC" stroke-width="2"/>
  <circle cx="44.5" cy="31.5" r="2.5" stroke="#ACACAC" stroke-width="2"/>
  <circle cx="82.5" cy="3.5" r="2.5" stroke="#ACACAC" stroke-width="2"/>
</svg>
