<svg xmlns="http://www.w3.org/2000/svg" width="480" height="577" fill="none" viewBox="0 0 480 577">
  <rect width="144.006" height="133.532" x=".72" y="289.343" fill="#FFD7E4" rx="34" transform="rotate(-90.143 .72 289.343)"/>
  <rect width="144.006" height="133.532" x="266.3" y="288.679" fill="#FFD7E4" rx="34" transform="rotate(-90.143 266.3 288.679)"/>
  <rect width="144.006" height="133.532" x="132.408" y="145.007" fill="#FFD7E4" opacity=".7" rx="34" transform="rotate(-90.143 132.408 145.007)"/>
  <rect width="144.006" height="133.532" x="133.128" y="433.019" fill="#FBFAFF" rx="34" transform="rotate(-90.143 133.128 433.019)"/>
  <rect width="144.006" height="133.532" x="400.192" y="432.351" fill="#FBFAFF" rx="34" transform="rotate(-90.143 400.192 432.351)"/>
  <rect width="144.006" height="133.532" x="267.02" y="576.691" fill="#FBFAFF" opacity=".5" rx="34" transform="rotate(-90.143 267.02 576.691)"/>
  <ellipse cx="199.354" cy="216.843" fill="#D177E4" rx="72.003" ry="66.766" transform="rotate(-90.143 199.354 216.843)"/>
  <ellipse cx="333.246" cy="360.515" fill="#04000A" rx="72.003" ry="66.766" transform="rotate(-90.143 333.246 360.515)"/>
</svg>
