<svg  class="hero-design" width="752" height="718" fill="none" viewBox="0 0 752 718">
  <rect class="square-anim" width="188" height="180" x="376" fill="#FFD7E4" rx="34"/>
  <rect class="square-anim" width="188" height="180" x="376" y="358" fill="#FFD7E4" rx="34"/>
  <rect class="square-anim" width="188" height="180" x="564" y="178" fill="#FFD7E4" opacity=".7" rx="34"/>
  <rect class="square-anim" width="188" height="180" x="188" y="178" fill="#FBFAFF" rx="34"/>
  <rect class="square-anim" width="188" height="180" x="188" y="538" fill="#FBFAFF" rx="34"/>
  <rect class="square-anim" width="188" height="180" y="358" fill="#FBFAFF" opacity=".5" rx="34"/>
  <path class="square-anim" fill="#D177E4" d="M564 268c-40 17-94 15-94 105 0-79-21-97-94-105 70-9 94-5 94-90 17 63 0 101 94 90z" opacity=".32"/>
  <path class="square-anim" fill="#D177E4" d="M553 268c-40 17-94 15-94 105 0-79-21-97-94-105 70-9 94-5 94-90 17 63 0 101 94 90z"/>
  <path class="square-anim" fill="#04000A" d="M376 448c-89-18-52 48-94 90 5-59-43-72-94-90 75 19 94-122 94-90 0 99 41 53 94 90z" opacity=".32"/>
  <path class="square-anim" fill="#04000A" d="M390 447.746c-89-18-52 48-94 90 5-59-43-72-94-90 75 19 94-122 94-90 0 99 41 53 94 90z"/>
</svg>