<svg xmlns="http://www.w3.org/2000/svg" width="40" height="40" fill="none" viewBox="0 0 40 40">
  <path fill="#04000A" d="M20 15.04a4.96 4.96 0 100 9.92 4.96 4.96 0 000-9.92zm19.86-4.9a13.059 13.059 0 00-.84-4.52A8 8 0 0034.38.98a13.06 13.06 0 00-4.52-.84C27.28 0 26.52 0 20 0s-7.28 0-9.86.14a13.06 13.06 0 00-4.52.84A8 8 0 00.98 5.62a13.06 13.06 0 00-.84 4.52C0 12.72 0 13.48 0 20s0 7.28.14 9.86a13.72 13.72 0 00.84 4.54 7.88 7.88 0 001.82 2.8 7.78 7.78 0 002.82 1.82c1.445.545 2.976.83 4.52.84 2.58.14 3.34.14 9.86.14s7.28 0 9.86-.14a13.059 13.059 0 004.52-.84 7.78 7.78 0 002.82-1.82 7.882 7.882 0 001.82-2.8 13.2 13.2 0 00.84-4.54C40 27.28 40 26.52 40 20s0-7.28-.14-9.86zm-5.08 16a11.461 11.461 0 01-.78 3.6A7.72 7.72 0 0129.74 34a11.46 11.46 0 01-3.62.7H13.88a11.46 11.46 0 01-3.62-.7 7.021 7.021 0 01-2.62-1.72A7.02 7.02 0 016 29.74a10.98 10.98 0 01-.68-3.62V20v-6.12A10.98 10.98 0 016 10.26a7.02 7.02 0 011.72-2.62A7.18 7.18 0 0110.26 6a11.46 11.46 0 013.62-.7h12.24a11.46 11.46 0 013.62.7 7.02 7.02 0 012.62 1.72A7.02 7.02 0 0134 10.26a11.46 11.46 0 01.7 3.62V20c0 4.12.14 4.54.08 6.12v.02zm-3.2-14.88a4.76 4.76 0 00-2.82-2.82A8 8 0 0026 8H14a8 8 0 00-2.76.52 4.76 4.76 0 00-2.82 2.72A8.54 8.54 0 008 14v12a8.54 8.54 0 00.52 2.76 4.76 4.76 0 002.82 2.82 8.54 8.54 0 002.66.52h12a8 8 0 002.76-.52 4.761 4.761 0 002.82-2.82A8 8 0 0032.1 26v-6-6a7.56 7.56 0 00-.52-2.76v.02zM20 27.64A7.622 7.622 0 0112.38 20 7.64 7.64 0 1120 27.64zm8-13.78a1.8 1.8 0 010-3.58 1.8 1.8 0 010 3.58z"/>
</svg>
