<svg xmlns="http://www.w3.org/2000/svg" width="68" height="54" fill="none" viewBox="0 0 68 54">
  <path fill="#E37FB9" d="M57.8 0H10.2C7.495 0 4.9.948 2.988 2.636 1.075 4.324 0 6.613 0 9v24c0 2.387 1.075 4.676 2.988 6.364C4.9 41.052 7.495 42 10.2 42h20.4v6H17c-.902 0-1.767.316-2.404.879-.638.562-.996 1.325-.996 2.121s.358 1.559.996 2.121c.637.563 1.502.879 2.404.879h34c.902 0 1.767-.316 2.404-.879.638-.562.996-1.325.996-2.121s-.358-1.559-.996-2.121C52.766 48.316 51.902 48 51 48H37.4v-6h20.4c2.705 0 5.3-.948 7.213-2.636C66.925 37.676 68 35.387 68 33V9c0-2.387-1.075-4.676-2.987-6.364C63.1.948 60.505 0 57.8 0zm3.4 33c0 .796-.358 1.559-.996 2.121-.638.563-1.502.879-2.404.879H10.2c-.902 0-1.767-.316-2.404-.879C7.158 34.56 6.8 33.796 6.8 33V9c0-.796.358-1.559.996-2.121C8.433 6.316 9.298 6 10.2 6h47.6c.902 0 1.767.316 2.404.879.638.562.996 1.325.996 2.121v24z"/>
</svg>
